<svg xmlns="http://www.w3.org/2000/svg" width="2098.9683" height="724" viewBox="0 0 2098.9683 724"><rect x="0" y="0" width="2098.9683" height="724" fill="#FFFFFF"/><defs><marker id="arrow-0" viewBox="0 0 10 10" refX="5" refY="5" markerUnits="userSpaceOnUse" markerWidth="8" markerHeight="8" orient="auto"><path d="M 0 0 L 10 5 L 0 10 z" fill="#2F3B4D" stroke="#2F3B4D" stroke-width="1" stroke-dasharray="1,0"/></marker><marker id="arrow-start-0" viewBox="0 0 10 10" refX="4.5" refY="5" markerUnits="userSpaceOnUse" markerWidth="8" markerHeight="8" orient="auto"><path d="M 0 5 L 10 10 L 10 0 z" fill="#2F3B4D" stroke="#2F3B4D" stroke-width="1" stroke-dasharray="1,0"/></marker></defs><rect x="1782.93" y="82.00" width="308.04" height="634.00" rx="10" ry="10" fill="#FFFFDE" stroke="#AAAA33" stroke-width="1" /><text x="1936.95" y="110.00" text-anchor="middle" font-family="'trebuchet ms', verdana, arial, sans-serif" font-size="16" fill="#333333"><tspan x="1936.95" dy="0.00">Effect examples</tspan></text><path d="M 245.377,346.752L 247.044,346.752C248.710,346.752,252.044,346.752,254.960,346.752C257.877,346.752,260.377,346.752,262.877,346.759C265.377,346.765,267.877,346.778,269.127,346.784C270.377,346.790,270.377,346.790,271.627,346.797C272.877,346.803,275.377,346.816,277.877,346.822C280.377,346.829,282.877,346.829,285.794,346.829C288.710,346.829,292.044,346.829,293.710,346.829L 295.377,346.829" fill="none" stroke="#2F3B4D" stroke-width="2"    stroke-linecap="round" stroke-linejoin="round" /><path d="M 523.419,346.829L 525.085,346.829C526.752,346.829,530.085,346.829,533.002,346.829C535.919,346.829,538.419,346.829,540.919,346.836C543.419,346.843,545.919,346.857,547.169,346.864C548.419,346.871,548.419,346.871,549.669,346.878C550.919,346.885,553.419,346.899,555.919,346.906C558.419,346.913,560.919,346.913,563.835,346.913C566.752,346.913,570.085,346.913,571.752,346.913L 573.419,346.913" fill="none" stroke="#2F3B4D" stroke-width="2"    stroke-linecap="round" stroke-linejoin="round" /><path d="M 866.810,330.913L 868.268,330.913C869.726,330.913,872.643,330.913,875.560,330.913C878.476,330.913,881.393,330.913,882.925,329.456C884.457,328.000,884.605,325.087,887.031,277.225C889.457,229.362,894.162,136.551,896.588,88.688C899.014,40.826,899.162,37.913,900.694,36.456C902.226,35.000,905.143,35.000,908.060,35.000C910.976,35.000,913.893,35.000,915.351,35.000L 916.810,35.000" fill="none" stroke="#2F3B4D" stroke-width="2"    stroke-linecap="round" stroke-linejoin="round" /><path d="M 1051.495,35.000L 1052.953,35.000C1054.411,35.000,1057.328,35.000,1060.245,35.000C1063.161,35.000,1066.078,35.000,1068.994,35.048C1071.910,35.095,1074.825,35.190,1091.427,35.731C1108.028,36.272,1138.317,37.260,1154.919,37.801C1171.521,38.342,1174.436,38.437,1177.352,38.484C1180.268,38.532,1183.184,38.532,1186.101,38.532C1189.018,38.532,1191.934,38.532,1193.393,38.532L 1194.851,38.532" fill="none" stroke="#2F3B4D" stroke-width="2"    stroke-linecap="round" stroke-linejoin="round" /><path d="M 1329.536,38.532L 1331.202,38.532C1332.868,38.532,1336.201,38.532,1339.117,38.532C1342.034,38.532,1344.535,38.532,1347.036,38.567C1349.536,38.602,1352.036,38.672,1353.286,38.707C1354.536,38.742,1354.536,38.742,1355.786,38.777C1357.036,38.812,1359.536,38.882,1362.036,38.917C1364.537,38.952,1367.038,38.952,1369.955,38.952C1372.871,38.952,1376.204,38.952,1377.870,38.952L 1379.536,38.952" fill="none" stroke="#2F3B4D" stroke-width="2"    stroke-linecap="round" stroke-linejoin="round" /><path d="M 1514.221,38.952L 1515.888,38.952C1517.554,38.952,1520.887,38.952,1523.804,38.952C1526.721,38.952,1529.221,38.952,1531.721,38.970C1534.221,38.988,1536.721,39.024,1537.971,39.042C1539.221,39.060,1539.221,39.060,1540.471,39.078C1541.721,39.096,1544.221,39.132,1546.721,39.150C1549.221,39.168,1551.722,39.168,1554.638,39.168C1557.555,39.168,1560.888,39.168,1562.555,39.168L 1564.221,39.168" fill="none" stroke="#2F3B4D" stroke-width="2"    stroke-linecap="round" stroke-linejoin="round" /><path d="M 866.810,330.913L 868.268,330.913C869.726,330.913,872.643,330.913,875.560,330.913C878.476,330.913,881.393,330.913,884.279,330.615C887.165,330.318,890.020,329.723,1042.112,298.035C1194.204,266.347,1495.532,203.566,1647.624,171.878C1799.716,140.190,1802.572,139.595,1805.458,139.297C1808.344,139.000,1811.260,139.000,1814.177,139.000C1817.094,139.000,1820.010,139.000,1821.469,139.000L 1822.927,139.000" fill="none" stroke="#2F3B4D" stroke-width="2"    stroke-linecap="round" stroke-linejoin="round" /><path d="M 866.810,346.913L 868.268,346.913C869.726,346.913,872.643,346.913,875.560,346.913C878.476,346.913,881.393,346.913,884.300,346.749C887.208,346.586,890.106,346.259,1042.176,329.103C1194.247,311.948,1495.489,277.965,1647.560,260.809C1799.630,243.654,1802.529,243.327,1805.436,243.163C1808.344,243.000,1811.260,243.000,1814.177,243.000C1817.094,243.000,1820.010,243.000,1821.469,243.000L 1822.927,243.000" fill="none" stroke="#2F3B4D" stroke-width="2"    stroke-linecap="round" stroke-linejoin="round" /><path d="M 848.114,385.913L 848.114,374.011C848.114,362.108,848.114,338.304,848.114,324.402C848.114,310.500,848.114,306.500,850.114,304.500C852.114,302.500,856.114,302.500,1035.350,302.500C1214.586,302.500,1569.058,302.500,1747.752,302.500C1926.446,302.500,1929.363,302.500,1930.821,303.958C1932.280,305.417,1932.280,308.333,1932.280,311.250C1932.280,314.167,1932.280,317.083,1932.280,318.542L 1932.280,320.000" fill="none" stroke="#2F3B4D" stroke-width="2"    stroke-linecap="round" stroke-linejoin="round" /><path d="M 784.114,385.913L 784.114,387.371C784.114,388.829,784.114,391.746,784.114,394.663C784.114,397.579,784.114,400.496,785.572,401.958C787.031,403.421,789.947,403.428,979.072,403.939C1168.197,404.450,1543.529,405.463,1732.654,405.974C1921.779,406.484,1924.695,406.492,1926.154,407.954C1927.612,409.417,1927.612,412.333,1927.612,415.250C1927.612,418.167,1927.612,421.083,1927.612,422.542L 1927.612,424.000" fill="none" stroke="#2F3B4D" stroke-width="2"    stroke-linecap="round" stroke-linejoin="round" /><path d="M 866.810,362.913L 868.268,362.913C869.726,362.913,872.643,362.913,875.560,362.913C878.476,362.913,881.393,362.913,884.279,363.210C887.165,363.508,890.020,364.104,1042.112,395.820C1194.204,427.537,1495.533,490.375,1647.625,522.092C1799.716,553.809,1802.572,554.405,1805.458,554.702C1808.344,555.000,1811.260,555.000,1814.177,555.000C1817.094,555.000,1820.010,555.000,1821.469,555.000L 1822.927,555.000" fill="none" stroke="#2F3B4D" stroke-width="2"    stroke-linecap="round" stroke-linejoin="round" /><path d="M 592.114,385.913L 592.114,422.011C592.114,458.108,592.114,530.304,592.114,568.402C592.114,606.500,592.114,610.500,594.114,612.500C596.114,614.500,600.114,614.500,816.571,614.500C1033.028,614.500,1461.941,614.500,1677.857,614.500C1893.772,614.500,1896.688,614.500,1898.147,615.958C1899.605,617.417,1899.605,620.333,1899.605,623.250C1899.605,626.167,1899.605,629.083,1899.605,630.542L 1899.605,632.000" fill="none" stroke="#2F3B4D" stroke-width="2"    stroke-linecap="round" stroke-linejoin="round" /><rect x="573.42" y="307.91" width="293.39" height="78.00" rx="3" ry="3" fill="#ECECFF" stroke="#7B88A8" stroke-width="1" stroke-linejoin="round" stroke-linecap="round"/><text x="720.11" y="338.91" text-anchor="middle" font-family="'trebuchet ms', verdana, arial, sans-serif" font-size="16" fill="#333333"><tspan x="720.11" dy="0.00">Vec&lt;AudioEffect&gt; (ordered</tspan><tspan x="720.11" dy="24.00">chain)</tspan></text><rect x="295.38" y="307.83" width="228.04" height="78.00" rx="3" ry="3" fill="#ECECFF" stroke="#7B88A8" stroke-width="1" stroke-linejoin="round" stroke-linecap="round"/><text x="409.40" y="338.83" text-anchor="middle" font-family="'trebuchet ms', verdana, arial, sans-serif" font-size="16" fill="#333333"><tspan x="409.40" dy="0.00">EffectContext</tspan><tspan x="409.40" dy="24.00">(rate/channels/IR)</tspan></text><rect x="1822.93" y="320.00" width="218.71" height="54.00" rx="3" ry="3" fill="#ECECFF" stroke="#7B88A8" stroke-width="1" stroke-linejoin="round" stroke-linecap="round"/><text x="1932.28" y="351.00" text-anchor="middle" font-family="'trebuchet ms', verdana, arial, sans-serif" font-size="16" fill="#333333"><tspan x="1932.28" dy="0.00">ConvolutionReverb</tspan></text><rect x="1822.93" y="112.00" width="162.69" height="54.00" rx="3" ry="3" fill="#ECECFF" stroke="#7B88A8" stroke-width="1" stroke-linejoin="round" stroke-linecap="round"/><text x="1904.27" y="143.00" text-anchor="middle" font-family="'trebuchet ms', verdana, arial, sans-serif" font-size="16" fill="#333333"><tspan x="1904.27" dy="0.00">DelayReverb</tspan></text><rect x="1822.93" y="216.00" width="200.03" height="54.00" rx="3" ry="3" fill="#ECECFF" stroke="#7B88A8" stroke-width="1" stroke-linejoin="round" stroke-linecap="round"/><text x="1922.94" y="247.00" text-anchor="middle" font-family="'trebuchet ms', verdana, arial, sans-serif" font-size="16" fill="#333333"><tspan x="1922.94" dy="0.00">DiffusionReverb</tspan></text><rect x="1822.93" y="632.00" width="153.36" height="54.00" rx="3" ry="3" fill="#ECECFF" stroke="#7B88A8" stroke-width="1" stroke-linejoin="round" stroke-linecap="round"/><text x="1899.61" y="663.00" text-anchor="middle" font-family="'trebuchet ms', verdana, arial, sans-serif" font-size="16" fill="#333333"><tspan x="1899.61" dy="0.00">Distortion</tspan></text><rect x="1822.93" y="528.00" width="228.04" height="54.00" rx="3" ry="3" fill="#ECECFF" stroke="#7B88A8" stroke-width="1" stroke-linejoin="round" stroke-linecap="round"/><text x="1936.95" y="559.00" text-anchor="middle" font-family="'trebuchet ms', verdana, arial, sans-serif" font-size="16" fill="#333333"><tspan x="1936.95" dy="0.00">Compressor/Limiter</tspan></text><rect x="916.81" y="8.00" width="134.69" height="54.00" rx="3" ry="3" fill="#ECECFF" stroke="#7B88A8" stroke-width="1" stroke-linejoin="round" stroke-linecap="round"/><text x="984.15" y="39.00" text-anchor="middle" font-family="'trebuchet ms', verdana, arial, sans-serif" font-size="16" fill="#333333"><tspan x="984.15" dy="0.00">Effect 1</tspan></text><rect x="1194.85" y="11.53" width="134.69" height="54.00" rx="3" ry="3" fill="#ECECFF" stroke="#7B88A8" stroke-width="1" stroke-linejoin="round" stroke-linecap="round"/><text x="1262.19" y="42.53" text-anchor="middle" font-family="'trebuchet ms', verdana, arial, sans-serif" font-size="16" fill="#333333"><tspan x="1262.19" dy="0.00">Effect 2</tspan></text><rect x="1379.54" y="11.95" width="134.69" height="54.00" rx="3" ry="3" fill="#ECECFF" stroke="#7B88A8" stroke-width="1" stroke-linejoin="round" stroke-linecap="round"/><text x="1446.88" y="42.95" text-anchor="middle" font-family="'trebuchet ms', verdana, arial, sans-serif" font-size="16" fill="#333333"><tspan x="1446.88" dy="0.00">Effect N</tspan></text><rect x="1822.93" y="424.00" width="209.37" height="54.00" rx="3" ry="3" fill="#ECECFF" stroke="#7B88A8" stroke-width="1" stroke-linejoin="round" stroke-linecap="round"/><text x="1927.61" y="455.00" text-anchor="middle" font-family="'trebuchet ms', verdana, arial, sans-serif" font-size="16" fill="#333333"><tspan x="1927.61" dy="0.00">LowPass/HighPass</tspan></text><rect x="8.00" y="319.75" width="237.38" height="54.00" rx="3" ry="3" fill="#ECECFF" stroke="#7B88A8" stroke-width="1" stroke-linejoin="round" stroke-linecap="round"/><text x="126.69" y="350.75" text-anchor="middle" font-family="'trebuchet ms', verdana, arial, sans-serif" font-size="16" fill="#333333"><tspan x="126.69" dy="0.00">Interleaved samples</tspan></text><rect x="1564.22" y="12.17" width="218.71" height="54.00" rx="3" ry="3" fill="#ECECFF" stroke="#7B88A8" stroke-width="1" stroke-linejoin="round" stroke-linecap="round"/><text x="1673.57" y="43.17" text-anchor="middle" font-family="'trebuchet ms', verdana, arial, sans-serif" font-size="16" fill="#333333"><tspan x="1673.57" dy="0.00">Processed samples</tspan></text><g transform="translate(295.38 346.83) rotate(0.00)"><polygon points="0,0 -10.40,6.24 -10.40,-6.24" fill="#2F3B4D" stroke="#2F3B4D" stroke-width="2" stroke-linejoin="round" stroke-linecap="round"/></g><g transform="translate(573.42 346.91) rotate(0.00)"><polygon points="0,0 -10.40,6.24 -10.40,-6.24" fill="#2F3B4D" stroke="#2F3B4D" stroke-width="2" stroke-linejoin="round" stroke-linecap="round"/></g><g transform="translate(916.81 35.00) rotate(0.00)"><polygon points="0,0 -10.40,6.24 -10.40,-6.24" fill="#2F3B4D" stroke="#2F3B4D" stroke-width="2" stroke-linejoin="round" stroke-linecap="round"/></g><g transform="translate(1194.85 38.53) rotate(0.00)"><polygon points="0,0 -10.40,6.24 -10.40,-6.24" fill="#2F3B4D" stroke="#2F3B4D" stroke-width="2" stroke-linejoin="round" stroke-linecap="round"/></g><g transform="translate(1379.54 38.95) rotate(0.00)"><polygon points="0,0 -10.40,6.24 -10.40,-6.24" fill="#2F3B4D" stroke="#2F3B4D" stroke-width="2" stroke-linejoin="round" stroke-linecap="round"/></g><g transform="translate(1564.22 39.17) rotate(0.00)"><polygon points="0,0 -10.40,6.24 -10.40,-6.24" fill="#2F3B4D" stroke="#2F3B4D" stroke-width="2" stroke-linejoin="round" stroke-linecap="round"/></g></svg>