<svg xmlns="http://www.w3.org/2000/svg" width="2994.6672" height="302" viewBox="0 0 2994.6672 302"><rect x="0" y="0" width="2994.6672" height="302" fill="#FFFFFF"/><defs><marker id="arrow-0" viewBox="0 0 10 10" refX="5" refY="5" markerUnits="userSpaceOnUse" markerWidth="8" markerHeight="8" orient="auto"><path d="M 0 0 L 10 5 L 0 10 z" fill="#2F3B4D" stroke="#2F3B4D" stroke-width="1" stroke-dasharray="1,0"/></marker><marker id="arrow-start-0" viewBox="0 0 10 10" refX="4.5" refY="5" markerUnits="userSpaceOnUse" markerWidth="8" markerHeight="8" orient="auto"><path d="M 0 5 L 10 10 L 10 0 z" fill="#2F3B4D" stroke="#2F3B4D" stroke-width="1" stroke-dasharray="1,0"/></marker></defs><rect x="972.34" y="8.00" width="2014.33" height="286.00" rx="10" ry="10" fill="#FFFFDE" stroke="#AAAA33" stroke-width="1" /><text x="1979.50" y="36.00" text-anchor="middle" font-family="'trebuchet ms', verdana, arial, sans-serif" font-size="16" fill="#333333"><tspan x="1979.50" dy="0.00">proteus-lib modules</tspan></text><rect x="8.00" y="8.00" width="914.34" height="286.00" rx="10" ry="10" fill="#FFFFDE" stroke="#AAAA33" stroke-width="1" /><text x="465.17" y="36.00" text-anchor="middle" font-family="'trebuchet ms', verdana, arial, sans-serif" font-size="16" fill="#333333"><tspan x="465.17" dy="0.00">Proteus Workspace</tspan></text><path d="M 294.048,75.000L 295.507,75.000C296.965,75.000,299.882,75.000,302.798,75.000C305.715,75.000,308.632,75.000,310.090,76.458C311.548,77.917,311.548,80.833,311.548,102.167C311.548,123.500,311.548,163.250,311.548,185.125C311.548,207.000,311.548,211.000,313.548,213.000C315.548,215.000,319.548,215.000,370.560,215.000C421.571,215.000,519.593,215.000,568.605,215.000L 617.616,215.000" fill="none" stroke="#2F3B4D" stroke-width="2"    stroke-linecap="round" stroke-linejoin="round" /><path d="M 637.439,75.000L 636.613,75.000C635.787,75.000,634.135,75.000,632.483,75.000C630.831,75.000,629.180,75.000,628.354,75.826C627.528,76.652,627.528,78.304,627.528,103.478C627.528,128.652,627.528,177.348,627.528,202.522C627.528,227.696,627.528,229.348,626.702,230.174C625.876,231.000,624.224,231.000,622.572,231.000C620.920,231.000,619.268,231.000,618.442,231.000L 617.616,231.000" fill="none" stroke="#2F3B4D" stroke-width="2"    stroke-linecap="round" stroke-linejoin="round" /><path d="M 2282.543,87.000L 2281.084,87.000C2279.626,87.000,2276.709,87.000,2273.793,87.000C2270.876,87.000,2267.959,87.000,2266.501,88.458C2265.043,89.917,2265.043,92.833,2265.043,117.500C2265.043,142.167,2265.043,188.583,2265.043,213.792C2265.043,239.000,2265.043,243.000,2263.043,245.000C2261.043,247.000,2257.043,247.000,2202.744,247.000C2148.445,247.000,2043.847,247.000,1991.548,247.000L 1939.250,247.000" fill="none" stroke="#2F3B4D" stroke-width="2"    stroke-linecap="round" stroke-linejoin="round" /><path d="M 1929.816,75.000L 1928.358,75.000C1926.899,75.000,1923.983,75.000,1921.066,75.000C1918.149,75.000,1915.233,75.000,1914.329,76.349C1913.426,77.697,1914.536,80.395,1921.386,97.046C1928.237,113.697,1940.829,144.303,1947.679,160.954C1954.530,177.605,1955.640,180.303,1954.736,181.651C1953.833,183.000,1950.916,183.000,1948.000,183.000C1945.083,183.000,1942.166,183.000,1940.708,183.000L 1939.250,183.000" fill="none" stroke="#2F3B4D" stroke-width="2"    stroke-linecap="round" stroke-linejoin="round" /><path d="M 1733.121,102.000L 1733.121,103.458C1733.121,104.917,1733.121,107.833,1733.121,110.750C1733.121,113.667,1733.121,116.583,1734.271,118.938C1735.422,121.292,1737.724,123.083,1744.922,128.688C1752.121,134.292,1764.218,143.708,1771.417,149.313C1778.616,154.917,1780.917,156.708,1782.068,159.062C1783.218,161.417,1783.218,164.333,1783.219,167.250C1783.218,170.167,1783.218,173.083,1783.219,174.542L 1783.219,176.000" fill="none" stroke="#2F3B4D" stroke-width="2"    stroke-linecap="round" stroke-linejoin="round" /><path d="M 2644.605,75.000L 2643.147,75.000C2641.688,75.000,2638.772,75.000,2635.855,75.000C2632.938,75.000,2630.022,75.000,2628.563,76.458C2627.105,77.917,2627.105,80.833,2627.105,99.500C2627.105,118.167,2627.105,152.583,2627.105,171.792C2627.105,191.000,2627.105,195.000,2625.105,197.000C2623.105,199.000,2619.105,199.000,2504.463,199.000C2389.820,199.000,2164.535,199.000,2051.892,199.000L 1939.250,199.000" fill="none" stroke="#2F3B4D" stroke-width="2"    stroke-linecap="round" stroke-linejoin="round" /><path d="M 1536.425,75.000L 1537.884,75.000C1539.342,75.000,1542.259,75.000,1545.175,75.000C1548.092,75.000,1551.009,75.000,1552.467,76.458C1553.925,77.917,1553.925,80.833,1553.925,96.833C1553.925,112.833,1553.925,141.917,1553.925,158.458C1553.925,175.000,1553.925,179.000,1555.925,181.000C1557.925,183.000,1561.925,183.000,1574.136,183.000C1586.346,183.000,1606.767,183.000,1616.977,183.000L 1627.187,183.000" fill="none" stroke="#2F3B4D" stroke-width="2"    stroke-linecap="round" stroke-linejoin="round" /><path d="M 1221.041,87.000L 1222.500,87.000C1223.958,87.000,1226.875,87.000,1229.791,87.000C1232.708,87.000,1235.625,87.000,1237.083,88.458C1238.541,89.917,1238.541,92.833,1238.541,117.500C1238.541,142.167,1238.541,188.583,1238.541,213.792C1238.541,239.000,1238.541,243.000,1240.541,245.000C1242.541,247.000,1246.541,247.000,1311.316,247.000C1376.090,247.000,1501.639,247.000,1564.413,247.000L 1627.187,247.000" fill="none" stroke="#2F3B4D" stroke-width="2"    stroke-linecap="round" stroke-linejoin="round" /><rect x="1586.43" y="48.00" width="293.39" height="54.00" rx="3" ry="3" fill="#ECECFF" stroke="#7B88A8" stroke-width="1" stroke-linejoin="round" stroke-linecap="round"/><text x="1733.12" y="79.00" text-anchor="middle" font-family="'trebuchet ms', verdana, arial, sans-serif" font-size="16" fill="#333333"><tspan x="1733.12" dy="0.00">audio (buffers + samples)</tspan></text><rect x="38.00" y="48.00" width="256.05" height="54.00" rx="3" ry="3" fill="#ECECFF" stroke="#7B88A8" stroke-width="1" stroke-linejoin="round" stroke-linecap="round"/><text x="166.02" y="79.00" text-anchor="middle" font-family="'trebuchet ms', verdana, arial, sans-serif" font-size="16" fill="#333333"><tspan x="166.02" dy="0.00">proteus-cli (TUI/CLI)</tspan></text><rect x="2282.54" y="48.00" width="312.06" height="78.00" rx="3" ry="3" fill="#ECECFF" stroke="#7B88A8" stroke-width="1" stroke-linejoin="round" stroke-linecap="round"/><text x="2438.57" y="79.00" text-anchor="middle" font-family="'trebuchet ms', verdana, arial, sans-serif" font-size="16" fill="#333333"><tspan x="2438.57" dy="0.00">container (prot/mka parsing</tspan><tspan x="2438.57" dy="24.00">+ play_settings)</tspan></text><rect x="2644.60" y="48.00" width="312.06" height="54.00" rx="3" ry="3" fill="#ECECFF" stroke="#7B88A8" stroke-width="1" stroke-linejoin="round" stroke-linecap="round"/><text x="2800.64" y="79.00" text-anchor="middle" font-family="'trebuchet ms', verdana, arial, sans-serif" font-size="16" fill="#333333"><tspan x="2800.64" dy="0.00">dsp (effects + convolution)</tspan></text><rect x="1002.34" y="48.00" width="218.71" height="78.00" rx="3" ry="3" fill="#ECECFF" stroke="#7B88A8" stroke-width="1" stroke-linejoin="round" stroke-linecap="round"/><text x="1111.69" y="79.00" text-anchor="middle" font-family="'trebuchet ms', verdana, arial, sans-serif" font-size="16" fill="#333333"><tspan x="1111.69" dy="0.00">diagnostics</tspan><tspan x="1111.69" dy="24.00">(reporting/bench)</tspan></text><rect x="617.62" y="176.00" width="274.72" height="78.00" rx="3" ry="3" fill="#ECECFF" stroke="#7B88A8" stroke-width="1" stroke-linejoin="round" stroke-linecap="round"/><text x="754.98" y="207.00" text-anchor="middle" font-family="'trebuchet ms', verdana, arial, sans-serif" font-size="16" fill="#333333"><tspan x="754.98" dy="0.00">proteus-lib (core audio</tspan><tspan x="754.98" dy="24.00">library)</tspan></text><rect x="1627.19" y="176.00" width="312.06" height="78.00" rx="3" ry="3" fill="#ECECFF" stroke="#7B88A8" stroke-width="1" stroke-linejoin="round" stroke-linecap="round"/><text x="1783.22" y="207.00" text-anchor="middle" font-family="'trebuchet ms', verdana, arial, sans-serif" font-size="16" fill="#333333"><tspan x="1783.22" dy="0.00">playback (player + engine +</tspan><tspan x="1783.22" dy="24.00">mix)</tspan></text><rect x="344.05" y="48.00" width="293.39" height="54.00" rx="3" ry="3" fill="#ECECFF" stroke="#7B88A8" stroke-width="1" stroke-linejoin="round" stroke-linecap="round"/><text x="490.74" y="79.00" text-anchor="middle" font-family="'trebuchet ms', verdana, arial, sans-serif" font-size="16" fill="#333333"><tspan x="490.74" dy="0.00">proteus-scripts (helpers)</tspan></text><rect x="1271.04" y="48.00" width="265.38" height="54.00" rx="3" ry="3" fill="#ECECFF" stroke="#7B88A8" stroke-width="1" stroke-linejoin="round" stroke-linecap="round"/><text x="1403.73" y="79.00" text-anchor="middle" font-family="'trebuchet ms', verdana, arial, sans-serif" font-size="16" fill="#333333"><tspan x="1403.73" dy="0.00">tools (timing/helpers)</tspan></text><rect x="1929.82" y="48.00" width="302.73" height="54.00" rx="3" ry="3" fill="#ECECFF" stroke="#7B88A8" stroke-width="1" stroke-linejoin="round" stroke-linecap="round"/><text x="2081.18" y="79.00" text-anchor="middle" font-family="'trebuchet ms', verdana, arial, sans-serif" font-size="16" fill="#333333"><tspan x="2081.18" dy="0.00">track (decode + buffering)</tspan></text><g transform="translate(617.62 215.00) rotate(0.00)"><polygon points="0,0 -10.40,6.24 -10.40,-6.24" fill="#2F3B4D" stroke="#2F3B4D" stroke-width="2" stroke-linejoin="round" stroke-linecap="round"/></g><g transform="translate(617.62 231.00) rotate(0.00)"><polygon points="0,0 -10.40,6.24 -10.40,-6.24" fill="#2F3B4D" stroke="#2F3B4D" stroke-width="2" stroke-linejoin="round" stroke-linecap="round"/></g><g transform="translate(1939.25 247.00) rotate(180.00)"><polygon points="0,0 -10.40,6.24 -10.40,-6.24" fill="#2F3B4D" stroke="#2F3B4D" stroke-width="2" stroke-linejoin="round" stroke-linecap="round"/></g><g transform="translate(1939.25 183.00) rotate(180.00)"><polygon points="0,0 -10.40,6.24 -10.40,-6.24" fill="#2F3B4D" stroke="#2F3B4D" stroke-width="2" stroke-linejoin="round" stroke-linecap="round"/></g><g transform="translate(1783.22 176.00) rotate(90.00)"><polygon points="0,0 -10.40,6.24 -10.40,-6.24" fill="#2F3B4D" stroke="#2F3B4D" stroke-width="2" stroke-linejoin="round" stroke-linecap="round"/></g><g transform="translate(1939.25 199.00) rotate(180.00)"><polygon points="0,0 -10.40,6.24 -10.40,-6.24" fill="#2F3B4D" stroke="#2F3B4D" stroke-width="2" stroke-linejoin="round" stroke-linecap="round"/></g><g transform="translate(1627.19 183.00) rotate(0.00)"><polygon points="0,0 -10.40,6.24 -10.40,-6.24" fill="#2F3B4D" stroke="#2F3B4D" stroke-width="2" stroke-linejoin="round" stroke-linecap="round"/></g><g transform="translate(1627.19 247.00) rotate(0.00)"><polygon points="0,0 -10.40,6.24 -10.40,-6.24" fill="#2F3B4D" stroke="#2F3B4D" stroke-width="2" stroke-linejoin="round" stroke-linecap="round"/></g></svg>