<svg xmlns="http://www.w3.org/2000/svg" width="392.0652" height="1614" viewBox="0 0 392.0652 1614"><rect x="0" y="0" width="392.0652" height="1614" fill="#FFFFFF"/><defs><marker id="arrow-0" viewBox="0 0 10 10" refX="5" refY="5" markerUnits="userSpaceOnUse" markerWidth="8" markerHeight="8" orient="auto"><path d="M 0 0 L 10 5 L 0 10 z" fill="#2F3B4D" stroke="#2F3B4D" stroke-width="1" stroke-dasharray="1,0"/></marker><marker id="arrow-start-0" viewBox="0 0 10 10" refX="4.5" refY="5" markerUnits="userSpaceOnUse" markerWidth="8" markerHeight="8" orient="auto"><path d="M 0 5 L 10 10 L 10 0 z" fill="#2F3B4D" stroke="#2F3B4D" stroke-width="1" stroke-dasharray="1,0"/></marker></defs><rect x="11.42" y="8.00" width="353.39" height="886.00" rx="10" ry="10" fill="#FFFFDE" stroke="#AAAA33" stroke-width="1" /><text x="188.11" y="36.00" text-anchor="middle" font-family="'trebuchet ms', verdana, arial, sans-serif" font-size="16" fill="#333333"><tspan x="188.11" dy="0.00">Playback Thread</tspan></text><rect x="48.67" y="1292.00" width="278.71" height="314.00" rx="10" ry="10" fill="#FFFFDE" stroke="#AAAA33" stroke-width="1" /><text x="188.02" y="1320.00" text-anchor="middle" font-family="'trebuchet ms', verdana, arial, sans-serif" font-size="16" fill="#333333"><tspan x="188.02" dy="0.00">Mix Thread</tspan></text><rect x="39.40" y="974.00" width="297.38" height="238.00" rx="10" ry="10" fill="#FFFFDE" stroke="#AAAA33" stroke-width="1" /><text x="188.09" y="1002.00" text-anchor="middle" font-family="'trebuchet ms', verdana, arial, sans-serif" font-size="16" fill="#333333"><tspan x="188.09" dy="0.00">Track Decode Threads</tspan></text><path d="M 188.113,102.000L 188.114,103.667C188.113,105.333,188.113,108.667,188.114,111.583C188.113,114.500,188.113,117.000,188.111,119.500C188.109,122.000,188.105,124.500,188.103,125.750C188.101,127.000,188.101,127.000,188.099,128.250C188.097,129.500,188.093,132.000,188.091,134.500C188.089,137.000,188.089,139.500,188.089,142.417C188.089,145.333,188.089,148.667,188.089,150.333L 188.089,152.000" fill="none" stroke="#2F3B4D" stroke-width="2"    stroke-linecap="round" stroke-linejoin="round" /><path d="M 188.089,206.000L 188.089,207.458C188.089,208.917,188.089,211.833,188.089,214.750C188.089,217.667,188.089,220.583,189.547,222.042C191.006,223.500,193.922,223.500,224.585,223.500C255.248,223.500,313.656,223.500,344.861,223.500C376.065,223.500,380.065,223.500,382.065,225.500C384.065,227.500,384.065,231.500,384.065,411.333C384.065,591.167,384.065,946.833,384.065,1126.667C384.065,1306.500,384.065,1310.500,382.065,1312.500C380.065,1314.500,376.065,1314.500,350.186,1314.500C324.307,1314.500,276.549,1314.500,251.212,1314.500C225.875,1314.500,222.958,1314.500,221.500,1315.958C220.041,1317.417,220.041,1320.333,220.041,1323.250C220.041,1326.167,220.041,1329.083,220.041,1330.542L 220.041,1332.000" fill="none" stroke="#2F3B4D" stroke-width="2"    stroke-linecap="round" stroke-linejoin="round" /><path d="M 252.089,206.000L 252.089,207.931C252.089,209.862,252.089,213.724,252.089,215.807C252.089,217.890,252.089,218.195,252.242,218.348C252.394,218.500,252.699,218.500,252.851,218.500C253.004,218.500,253.004,218.500,253.156,218.500C253.308,218.500,253.613,218.500,253.766,218.348C253.918,218.195,253.918,217.890,253.918,209.224C253.918,200.557,253.918,183.529,253.918,173.014C253.918,162.500,253.918,158.500,251.918,156.500C249.918,154.500,245.918,154.500,218.585,154.500C191.251,154.500,140.585,154.500,113.251,154.500C85.918,154.500,81.918,154.500,79.918,156.500C77.918,158.500,77.918,162.500,77.918,301.833C77.918,441.167,77.918,715.833,77.918,855.167C77.918,994.500,77.918,998.500,79.918,1000.500C81.918,1002.500,85.918,1002.500,103.321,1002.500C120.724,1002.500,151.530,1002.500,167.891,1002.500C184.252,1002.500,186.169,1002.500,187.127,1003.458C188.086,1004.417,188.086,1006.333,188.086,1008.250C188.086,1010.167,188.086,1012.083,188.086,1013.042L 188.086,1014.000" fill="none" stroke="#2F3B4D" stroke-width="2"    stroke-linecap="round" stroke-linejoin="round" /><path d="M 188.086,1068.000L 188.086,1069.667C188.086,1071.333,188.086,1074.667,188.086,1077.583C188.086,1080.500,188.086,1083.000,188.084,1085.500C188.082,1088.000,188.078,1090.500,188.076,1091.750C188.074,1093.000,188.074,1093.000,188.072,1094.250C188.070,1095.500,188.067,1098.000,188.065,1100.500C188.063,1103.000,188.063,1105.500,188.063,1108.417C188.063,1111.333,188.063,1114.667,188.063,1116.333L 188.063,1118.000" fill="none" stroke="#2F3B4D" stroke-width="2"    stroke-linecap="round" stroke-linejoin="round" /><path d="M 188.063,1172.000L 188.063,1173.458C188.063,1174.917,188.063,1177.833,188.063,1180.750C188.063,1183.667,188.063,1186.583,188.062,1189.500C188.062,1192.417,188.062,1195.333,188.058,1214.708C188.055,1234.083,188.049,1269.917,188.046,1289.292C188.042,1308.667,188.042,1311.583,188.042,1314.500C188.041,1317.417,188.041,1320.333,188.041,1323.250C188.041,1326.167,188.041,1329.083,188.041,1330.542L 188.041,1332.000" fill="none" stroke="#2F3B4D" stroke-width="2"    stroke-linecap="round" stroke-linejoin="round" /><path d="M 188.041,1386.000L 188.041,1388.000C188.041,1390.000,188.041,1394.000,188.041,1396.917C188.041,1399.833,188.041,1401.667,188.039,1401.667C188.038,1401.667,188.034,1399.833,188.032,1398.917C188.031,1398.000,188.031,1398.000,188.029,1397.083C188.027,1396.167,188.023,1394.333,188.022,1394.333C188.020,1394.333,188.020,1396.167,188.020,1399.083C188.020,1402.000,188.020,1406.000,188.020,1408.000L 188.020,1410.000" fill="none" stroke="#2F3B4D" stroke-width="2"    stroke-linecap="round" stroke-linejoin="round" /><path d="M 188.020,1464.000L 188.020,1465.458C188.020,1466.917,188.020,1469.833,188.020,1472.750C188.020,1475.667,188.020,1478.583,189.441,1479.716C190.863,1480.848,193.706,1480.197,200.282,1478.689C206.857,1477.182,217.166,1474.818,223.742,1473.311C230.318,1471.803,233.161,1471.152,234.583,1472.284C236.004,1473.417,236.004,1476.333,236.004,1479.250C236.004,1482.167,236.004,1485.083,236.004,1486.542L 236.004,1488.000" fill="none" stroke="#2F3B4D" stroke-width="2"    stroke-linecap="round" stroke-linejoin="round" /><path d="M 188.004,1488.000L 188.004,1486.542C188.004,1485.083,188.004,1482.167,188.004,1479.250C188.004,1476.333,188.004,1473.417,186.546,1471.958C185.087,1470.500,182.171,1470.500,154.170,1470.500C126.169,1470.500,73.085,1470.500,44.542,1470.500C16.000,1470.500,12.000,1470.500,10.000,1468.500C8.000,1466.500,8.000,1462.500,8.000,1364.667C8.000,1266.833,8.000,1075.167,8.000,977.333C8.000,879.500,8.000,875.500,10.000,873.500C12.000,871.500,16.000,871.500,44.541,871.500C73.082,871.500,126.164,871.500,154.163,871.500C182.163,871.500,185.079,871.500,186.538,870.042C187.996,868.583,187.996,865.667,187.996,862.750C187.996,859.833,187.996,856.917,187.996,855.458L 187.996,854.000" fill="none" stroke="#2F3B4D" stroke-width="2"    stroke-linecap="round" stroke-linejoin="round" /><rect x="69.40" y="1014.00" width="237.38" height="54.00" rx="3" ry="3" fill="#ECECFF" stroke="#7B88A8" stroke-width="1" stroke-linejoin="round" stroke-linecap="round"/><text x="188.09" y="1045.00" text-anchor="middle" font-family="'trebuchet ms', verdana, arial, sans-serif" font-size="16" fill="#333333"><tspan x="188.09" dy="0.00">track::buffer_track</tspan></text><rect x="88.05" y="1118.00" width="200.03" height="54.00" rx="3" ry="3" fill="#ECECFF" stroke="#7B88A8" stroke-width="1" stroke-linejoin="round" stroke-linecap="round"/><text x="188.06" y="1149.00" text-anchor="middle" font-family="'trebuchet ms', verdana, arial, sans-serif" font-size="16" fill="#333333"><tspan x="188.06" dy="0.00">TrackBuffer map</tspan></text><rect x="78.67" y="1410.00" width="218.71" height="54.00" rx="3" ry="3" fill="#ECECFF" stroke="#7B88A8" stroke-width="1" stroke-linejoin="round" stroke-linecap="round"/><text x="188.02" y="1441.00" text-anchor="middle" font-family="'trebuchet ms', verdana, arial, sans-serif" font-size="16" fill="#333333"><tspan x="188.02" dy="0.00">AudioEffect chain</tspan></text><rect x="78.74" y="152.00" width="218.71" height="54.00" rx="3" ry="3" fill="#ECECFF" stroke="#7B88A8" stroke-width="1" stroke-linejoin="round" stroke-linecap="round"/><text x="188.09" y="183.00" text-anchor="middle" font-family="'trebuchet ms', verdana, arial, sans-serif" font-size="16" fill="#333333"><tspan x="188.09" dy="0.00">PlayerEngine::new</tspan></text><rect x="120.70" y="1332.00" width="134.69" height="54.00" rx="3" ry="3" fill="#ECECFF" stroke="#7B88A8" stroke-width="1" stroke-linejoin="round" stroke-linecap="round"/><text x="188.04" y="1363.00" text-anchor="middle" font-family="'trebuchet ms', verdana, arial, sans-serif" font-size="16" fill="#333333"><tspan x="188.04" dy="0.00">mix loop</tspan></text><rect x="41.42" y="48.00" width="293.39" height="54.00" rx="3" ry="3" fill="#ECECFF" stroke="#7B88A8" stroke-width="1" stroke-linejoin="round" stroke-linecap="round"/><text x="188.11" y="79.00" text-anchor="middle" font-family="'trebuchet ms', verdana, arial, sans-serif" font-size="16" fill="#333333"><tspan x="188.11" dy="0.00">Player::initialize_thread</tspan></text><rect x="92.65" y="1488.00" width="190.70" height="78.00" rx="3" ry="3" fill="#ECECFF" stroke="#7B88A8" stroke-width="1" stroke-linejoin="round" stroke-linecap="round"/><text x="188.00" y="1519.00" text-anchor="middle" font-family="'trebuchet ms', verdana, arial, sans-serif" font-size="16" fill="#333333"><tspan x="188.00" dy="0.00">mpsc sender -&gt;</tspan><tspan x="188.00" dy="24.00">SamplesBuffer</tspan></text><rect x="106.65" y="800.00" width="162.69" height="54.00" rx="3" ry="3" fill="#ECECFF" stroke="#7B88A8" stroke-width="1" stroke-linejoin="round" stroke-linecap="round"/><text x="188.00" y="831.00" text-anchor="middle" font-family="'trebuchet ms', verdana, arial, sans-serif" font-size="16" fill="#333333"><tspan x="188.00" dy="0.00">rodio::Sink</tspan></text><g transform="translate(188.09 152.00) rotate(90.00)"><polygon points="0,0 -10.40,6.24 -10.40,-6.24" fill="#2F3B4D" stroke="#2F3B4D" stroke-width="2" stroke-linejoin="round" stroke-linecap="round"/></g><g transform="translate(220.04 1332.00) rotate(90.00)"><polygon points="0,0 -10.40,6.24 -10.40,-6.24" fill="#2F3B4D" stroke="#2F3B4D" stroke-width="2" stroke-linejoin="round" stroke-linecap="round"/></g><g transform="translate(188.09 1014.00) rotate(90.00)"><polygon points="0,0 -10.40,6.24 -10.40,-6.24" fill="#2F3B4D" stroke="#2F3B4D" stroke-width="2" stroke-linejoin="round" stroke-linecap="round"/></g><g transform="translate(188.06 1118.00) rotate(90.00)"><polygon points="0,0 -10.40,6.24 -10.40,-6.24" fill="#2F3B4D" stroke="#2F3B4D" stroke-width="2" stroke-linejoin="round" stroke-linecap="round"/></g><g transform="translate(188.04 1332.00) rotate(90.00)"><polygon points="0,0 -10.40,6.24 -10.40,-6.24" fill="#2F3B4D" stroke="#2F3B4D" stroke-width="2" stroke-linejoin="round" stroke-linecap="round"/></g><g transform="translate(188.02 1410.00) rotate(90.00)"><polygon points="0,0 -10.40,6.24 -10.40,-6.24" fill="#2F3B4D" stroke="#2F3B4D" stroke-width="2" stroke-linejoin="round" stroke-linecap="round"/></g><g transform="translate(236.00 1488.00) rotate(90.00)"><polygon points="0,0 -10.40,6.24 -10.40,-6.24" fill="#2F3B4D" stroke="#2F3B4D" stroke-width="2" stroke-linejoin="round" stroke-linecap="round"/></g><g transform="translate(188.00 854.00) rotate(-90.00)"><polygon points="0,0 -10.40,6.24 -10.40,-6.24" fill="#2F3B4D" stroke="#2F3B4D" stroke-width="2" stroke-linejoin="round" stroke-linecap="round"/></g></svg>