<svg xmlns="http://www.w3.org/2000/svg" width="1770.9617" height="278" viewBox="0 0 1770.9617 278"><rect x="0" y="0" width="1770.9617" height="278" fill="#FFFFFF"/><defs><marker id="arrow-0" viewBox="0 0 10 10" refX="5" refY="5" markerUnits="userSpaceOnUse" markerWidth="8" markerHeight="8" orient="auto"><path d="M 0 0 L 10 5 L 0 10 z" fill="#2F3B4D" stroke="#2F3B4D" stroke-width="1" stroke-dasharray="1,0"/></marker><marker id="arrow-start-0" viewBox="0 0 10 10" refX="4.5" refY="5" markerUnits="userSpaceOnUse" markerWidth="8" markerHeight="8" orient="auto"><path d="M 0 5 L 10 10 L 10 0 z" fill="#2F3B4D" stroke="#2F3B4D" stroke-width="1" stroke-dasharray="1,0"/></marker></defs><rect x="8.00" y="8.00" width="1754.96" height="262.00" rx="10" ry="10" fill="#FFFFDE" stroke="#AAAA33" stroke-width="1" /><text x="885.48" y="36.00" text-anchor="middle" font-family="'trebuchet ms', verdana, arial, sans-serif" font-size="16" fill="#333333"><tspan x="885.48" dy="0.00">proteus-lib</tspan></text><path d="M 796.792,126.000L 796.792,127.458C796.792,128.917,796.792,131.833,796.792,134.750C796.792,137.667,796.792,140.583,797.965,142.908C799.138,145.234,801.483,146.967,803.693,148.600C805.903,150.234,807.977,151.766,810.186,153.400C812.396,155.033,814.742,156.766,815.914,159.092C817.087,161.417,817.087,164.333,817.087,167.250C817.087,170.167,817.087,173.083,817.087,174.542L 817.087,176.000" fill="none" stroke="#2F3B4D" stroke-width="2"    stroke-linecap="round" stroke-linejoin="round" /><path d="M 984.152,75.000L 982.694,75.000C981.235,75.000,978.319,75.000,975.402,75.000C972.485,75.000,969.569,75.000,968.240,76.453C966.910,77.905,967.169,80.810,968.700,98.024C970.231,115.239,973.035,146.761,974.567,163.976C976.098,181.190,976.356,184.095,975.027,185.547C973.698,187.000,970.781,187.000,967.865,187.000C964.948,187.000,962.031,187.000,960.573,187.000L 959.115,187.000" fill="none" stroke="#2F3B4D" stroke-width="2"    stroke-linecap="round" stroke-linejoin="round" /><path d="M 1327.543,87.000L 1326.085,87.000C1324.626,87.000,1321.710,87.000,1318.793,87.000C1315.876,87.000,1312.960,87.000,1311.501,88.458C1310.043,89.917,1310.043,92.833,1310.043,101.833C1310.043,110.833,1310.043,125.917,1310.043,135.458C1310.043,145.000,1310.043,149.000,1308.043,151.000C1306.043,153.000,1302.043,153.000,1248.472,153.000C1194.900,153.000,1091.758,153.000,1038.186,153.000C984.615,153.000,980.615,153.000,978.615,155.000C976.615,157.000,976.615,161.000,976.615,170.542C976.615,180.083,976.615,195.167,976.615,204.167C976.615,213.167,976.615,216.083,975.156,217.542C973.698,219.000,970.781,219.000,967.865,219.000C964.948,219.000,962.031,219.000,960.573,219.000L 959.115,219.000" fill="none" stroke="#2F3B4D" stroke-width="2"    stroke-linecap="round" stroke-linejoin="round" /><path d="M 294.048,75.000L 295.507,75.000C296.965,75.000,299.882,75.000,302.798,75.000C305.715,75.000,308.632,75.000,310.090,76.458C311.548,77.917,311.548,80.833,311.548,94.500C311.548,108.167,311.548,132.583,311.548,146.792C311.548,161.000,311.548,165.000,313.548,167.000C315.548,169.000,319.548,169.000,375.217,169.000C430.885,169.000,538.222,169.000,593.891,169.000C649.560,169.000,653.560,169.000,655.560,171.000C657.560,173.000,657.560,177.000,657.560,181.208C657.560,185.417,657.560,189.833,657.560,193.500C657.560,197.167,657.560,200.083,659.018,201.542C660.476,203.000,663.393,203.000,666.310,203.000C669.226,203.000,672.143,203.000,673.601,203.000L 675.060,203.000" fill="none" stroke="#2F3B4D" stroke-width="2"    stroke-linecap="round" stroke-linejoin="round" /><path d="M 609.432,75.000L 610.891,75.000C612.349,75.000,615.266,75.000,618.182,75.000C621.099,75.000,624.016,75.000,625.777,76.426C627.539,77.853,628.146,80.706,632.947,103.279C637.748,125.853,646.744,168.147,651.545,190.721C656.346,213.294,656.953,216.147,658.714,217.574C660.476,219.000,663.393,219.000,666.310,219.000C669.226,219.000,672.143,219.000,673.601,219.000L 675.060,219.000" fill="none" stroke="#2F3B4D" stroke-width="2"    stroke-linecap="round" stroke-linejoin="round" /><rect x="984.15" y="48.00" width="293.39" height="54.00" rx="3" ry="3" fill="#ECECFF" stroke="#7B88A8" stroke-width="1" stroke-linejoin="round" stroke-linecap="round"/><text x="1130.85" y="79.00" text-anchor="middle" font-family="'trebuchet ms', verdana, arial, sans-serif" font-size="16" fill="#333333"><tspan x="1130.85" dy="0.00">audio (buffering/samples)</tspan></text><rect x="659.43" y="48.00" width="274.72" height="78.00" rx="3" ry="3" fill="#ECECFF" stroke="#7B88A8" stroke-width="1" stroke-linejoin="round" stroke-linecap="round"/><text x="796.79" y="79.00" text-anchor="middle" font-family="'trebuchet ms', verdana, arial, sans-serif" font-size="16" fill="#333333"><tspan x="796.79" dy="0.00">container</tspan><tspan x="796.79" dy="24.00">(prot/info/attachments)</tspan></text><rect x="1327.54" y="48.00" width="405.42" height="78.00" rx="3" ry="3" fill="#ECECFF" stroke="#7B88A8" stroke-width="1" stroke-linejoin="round" stroke-linecap="round"/><text x="1530.25" y="79.00" text-anchor="middle" font-family="'trebuchet ms', verdana, arial, sans-serif" font-size="16" fill="#333333"><tspan x="1530.25" dy="0.00">dsp</tspan><tspan x="1530.25" dy="24.00">(convolution/reverb/impulse_response)</tspan></text><rect x="344.05" y="48.00" width="265.38" height="54.00" rx="3" ry="3" fill="#ECECFF" stroke="#7B88A8" stroke-width="1" stroke-linejoin="round" stroke-linecap="round"/><text x="476.74" y="79.00" text-anchor="middle" font-family="'trebuchet ms', verdana, arial, sans-serif" font-size="16" fill="#333333"><tspan x="476.74" dy="0.00">diagnostics (reporter)</tspan></text><rect x="675.06" y="176.00" width="284.06" height="54.00" rx="3" ry="3" fill="#ECECFF" stroke="#7B88A8" stroke-width="1" stroke-linejoin="round" stroke-linecap="round"/><text x="817.09" y="207.00" text-anchor="middle" font-family="'trebuchet ms', verdana, arial, sans-serif" font-size="16" fill="#333333"><tspan x="817.09" dy="0.00">playback (player/engine)</tspan></text><rect x="38.00" y="48.00" width="256.05" height="54.00" rx="3" ry="3" fill="#ECECFF" stroke="#7B88A8" stroke-width="1" stroke-linejoin="round" stroke-linecap="round"/><text x="166.02" y="79.00" text-anchor="middle" font-family="'trebuchet ms', verdana, arial, sans-serif" font-size="16" fill="#333333"><tspan x="166.02" dy="0.00">tools (timer/helpers)</tspan></text><g transform="translate(817.09 176.00) rotate(90.00)"><polygon points="0,0 -10.40,6.24 -10.40,-6.24" fill="#2F3B4D" stroke="#2F3B4D" stroke-width="2" stroke-linejoin="round" stroke-linecap="round"/></g><g transform="translate(959.11 187.00) rotate(180.00)"><polygon points="0,0 -10.40,6.24 -10.40,-6.24" fill="#2F3B4D" stroke="#2F3B4D" stroke-width="2" stroke-linejoin="round" stroke-linecap="round"/></g><g transform="translate(959.11 219.00) rotate(180.00)"><polygon points="0,0 -10.40,6.24 -10.40,-6.24" fill="#2F3B4D" stroke="#2F3B4D" stroke-width="2" stroke-linejoin="round" stroke-linecap="round"/></g><g transform="translate(675.06 203.00) rotate(0.00)"><polygon points="0,0 -10.40,6.24 -10.40,-6.24" fill="#2F3B4D" stroke="#2F3B4D" stroke-width="2" stroke-linejoin="round" stroke-linecap="round"/></g><g transform="translate(675.06 219.00) rotate(0.00)"><polygon points="0,0 -10.40,6.24 -10.40,-6.24" fill="#2F3B4D" stroke="#2F3B4D" stroke-width="2" stroke-linejoin="round" stroke-linecap="round"/></g></svg>